<?xml version="1.0" encoding="UTF-8"?>
<svg id="Layer_2" data-name="Layer 2" xmlns="http://www.w3.org/2000/svg" xmlns:xlink="http://www.w3.org/1999/xlink" viewBox="0 0 1164.12 1189.38">
  <defs>
    <style>
      .cls-1 {
        fill: url(#Degradado_sin_nombre_13);
      }

      .cls-1, .cls-2 {
        stroke-width: 0px;
      }

      .cls-2 {
        fill: url(#Degradado_sin_nombre_13-2);
      }

      .cls-3 {
        opacity: .8;
      }
    </style>
    <linearGradient id="Degradado_sin_nombre_13" data-name="Degradado sin nombre 13" x1="19.99" y1="719.69" x2="1172.34" y2="719.69" gradientTransform="translate(-122.83 -7.12) rotate(-8.79)" gradientUnits="userSpaceOnUse">
      <stop offset="0" stop-color="#cda54f"/>
      <stop offset=".14" stop-color="#cfa851"/>
      <stop offset=".25" stop-color="#d5b25a"/>
      <stop offset=".35" stop-color="#e1c369"/>
      <stop offset=".44" stop-color="#f0db7d"/>
      <stop offset=".48" stop-color="#f8e687"/>
      <stop offset=".6" stop-color="#f6e180"/>
      <stop offset=".76" stop-color="#f1d36f"/>
      <stop offset=".95" stop-color="#e8bc53"/>
      <stop offset="1" stop-color="#e6b54a"/>
    </linearGradient>
    <linearGradient id="Degradado_sin_nombre_13-2" data-name="Degradado sin nombre 13" x1="27.22" y1="688.94" x2="1188.64" y2="688.94" xlink:href="#Degradado_sin_nombre_13"/>
  </defs>
  <g id="rings">
    <g>
      <g class="cls-3">
        <path class="cls-1" d="M664.36,1182.49c-152.1,23.51-304.26-13.61-428.43-104.54C111.74,987.03,30.4,853.19,6.89,701.09c-23.51-152.1,13.61-304.26,104.53-428.44,90.93-124.18,224.77-205.52,376.87-229.03,152.11-23.51,304.26,13.61,428.44,104.53,124.18,90.93,205.52,224.77,229.04,376.87,23.51,152.11-13.61,304.26-104.54,428.44-90.93,124.18-224.77,205.52-376.87,229.04ZM489.25,49.79c-150.45,23.26-282.84,103.72-372.78,226.55C26.53,399.17-10.19,549.68,13.07,700.13c23.26,150.46,103.72,282.84,226.55,372.79,122.83,89.94,273.34,126.66,423.79,103.4,150.45-23.26,282.85-103.71,372.78-226.55,89.94-122.84,126.66-273.34,103.4-423.8-23.26-150.45-103.72-282.84-226.55-372.78-122.83-89.94-273.34-126.66-423.79-103.4Z"/>
      </g>
      <path class="cls-2" d="M671.99,1154.78c-153.3,23.7-306.65-13.71-431.81-105.35-125.16-91.64-207.14-226.54-230.84-379.83-23.7-153.3,13.72-306.65,105.36-431.81C206.34,112.62,341.24,30.64,494.53,6.94c153.3-23.7,306.65,13.72,431.81,105.36,125.15,91.64,207.13,226.53,230.83,379.83,23.7,153.3-13.72,306.65-105.35,431.81-91.64,125.16-226.54,207.13-379.84,230.83ZM495.18,11.13C343,34.65,209.09,116.04,118.12,240.28,27.14,364.52-10,516.76,13.53,668.94c23.53,152.18,104.91,286.09,229.15,377.06,124.24,90.98,276.48,128.12,428.66,104.59,152.19-23.53,286.09-104.91,377.07-229.16,90.97-124.24,128.12-276.48,104.59-428.66-23.53-152.18-104.91-286.09-229.15-377.06C799.6,24.74,647.36-12.4,495.18,11.13Z"/>
    </g>
  </g>
</svg>